<?xml version="1.0" encoding="utf-8"?>
<!-- Generator: Adobe Illustrator 15.0.2, SVG Export Plug-In . SVG Version: 6.00 Build 0)  -->
<!DOCTYPE svg PUBLIC "-//W3C//DTD SVG 1.1//EN" "http://www.w3.org/Graphics/SVG/1.1/DTD/svg11.dtd">
<svg version="1.1" id="Layer_1" xmlns="http://www.w3.org/2000/svg" xmlns:xlink="http://www.w3.org/1999/xlink" x="0px" y="0px"
	 width="512px" height="512px" viewBox="0 0 512 512" enable-background="new 0 0 512 512" xml:space="preserve">
<path d="M43.717,277.342H0v-42.678h43.717c10.007-100.782,90.165-180.94,190.947-190.947V0h42.678v43.717
	c100.776,10.007,180.935,90.165,190.947,190.947H512v42.678h-43.711c-10.013,100.776-90.171,180.935-190.947,190.947V512h-42.678
	v-43.711C133.882,458.276,53.724,378.118,43.717,277.342z M86.651,234.664H128v42.678H86.651
	c9.632,77.185,70.815,138.369,148.013,148V384h42.678v41.342c77.185-9.631,138.369-70.815,148-148H384v-42.678h41.342
	c-9.631-77.197-70.815-138.381-148-148.006V128h-42.678V86.658C157.467,96.283,96.283,157.467,86.651,234.664z"/>
</svg>
